<?xml version="1.0" encoding="UTF-8"?>
<svg xmlns="http://www.w3.org/2000/svg" viewBox="0 0 920 1040" role="img" aria-labelledby="svgTitle svgDesc">
  <title id="svgTitle">Rťfťrence visuelle ó images Grenoble Roller</title>
  <desc id="svgDesc">Schťma des formats acceptťs, ratios compatibles, zone sŻre et dťrivťs affichťs sur le site.</desc>
  <defs>
    <style type="text/css"><![CDATA[
      .bg { fill: #f8f9fa; }
      .card { fill: #ffffff; stroke: #dee2e6; stroke-width: 2; }
      .t { font-family: system-ui, -apple-system, Segoe UI, Roboto, sans-serif; fill: #212529; }
      .t-muted { fill: #6c757d; font-size: 13px; }
      .h1 { font-size: 22px; font-weight: 700; }
      .h2 { font-size: 15px; font-weight: 700; }
      .li { font-size: 13px; }
      .accent { fill: #0d6efd; }
      .safe { fill: none; stroke: #198754; stroke-width: 2; stroke-dasharray: 6 4; }
      .t-ok { fill: #198754; font-size: 13px; }
    ]]></style>
  </defs>
  <rect class="bg" width="920" height="1040" rx="8"/>
  <text x="460" y="44" text-anchor="middle" class="t h1">Images ó rťfťrence rapide</text>
  <text x="460" y="68" text-anchor="middle" class="t t-muted">Grenoble Roller ∑ upload bťnťvoles</text>

  <rect class="card" x="32" y="92" width="400" height="120" rx="8"/>
  <text x="48" y="120" class="t h2">Formats de fichier</text>
  <text x="48" y="148" class="t li">&#8226; JPG ∑ PNG ∑ WebP</text>
  <text x="48" y="172" class="t li">&#8226; Taille max selon le formulaire (ex. boutique 5 Mo)</text>

  <rect class="card" x="456" y="92" width="432" height="120" rx="8"/>
  <text x="472" y="120" class="t h2">Ratios compatibles</text>
  <text x="472" y="148" class="t li">&#8226; 16:9 (paysage) et 4:5 (portrait) ó recommandťs</text>
  <text x="472" y="172" class="t li">&#8226; Autres ratios ó recadrage centrť automatique</text>

  <rect class="card" x="32" y="232" width="856" height="280" rx="8"/>
  <text x="48" y="262" class="t h2">Composer l&#8217;image : zone sŻre</text>
  <text x="48" y="286" class="t t-muted">Garder sujet et texte au centre ó le site recadre pour les listes (carrť) et le bandeau (16:9).</text>
  <rect x="280" y="310" width="360" height="180" fill="#e9ecef" stroke="#adb5bd" rx="4"/>
  <rect class="safe" x="320" y="330" width="280" height="140" rx="2"/>
  <text x="460" y="405" text-anchor="middle" class="t-ok" font-family="system-ui, -apple-system, Segoe UI, Roboto, sans-serif">Zone sŻre (sujet / texte)</text>
  <text x="460" y="500" text-anchor="middle" class="t t-muted">…viter les dťtails importants prŤs des bords du fichier.</text>

  <rect class="card" x="32" y="528" width="856" height="200" rx="8"/>
  <text x="48" y="558" class="t h2">Ce que le site affiche en sortie</text>
  <g transform="translate(48, 580)">
    <rect x="0" y="0" width="200" height="112" class="accent" opacity="0.15" rx="4"/>
    <rect x="0" y="0" width="200" height="112" fill="none" stroke="#0d6efd" stroke-width="2" rx="4"/>
    <text x="100" y="28" text-anchor="middle" class="t h2">BanniŤre 16:9</text>
    <text x="100" y="52" text-anchor="middle" class="t li">Hero ťvťnement, carrousel</text>
    <text x="100" y="88" text-anchor="middle" class="t t-muted">Ex. 1200◊675 (variant serveur)</text>
  </g>
  <g transform="translate(280, 580)">
    <rect x="0" y="0" width="112" height="112" class="accent" opacity="0.15" rx="4"/>
    <rect x="0" y="0" width="112" height="112" fill="none" stroke="#0d6efd" stroke-width="2" rx="4"/>
    <text x="56" y="28" text-anchor="middle" class="t h2">Carrť 1:1</text>
    <text x="56" y="52" text-anchor="middle" class="t li">Cartes, listes</text>
    <text x="56" y="88" text-anchor="middle" class="t t-muted">Grille boutique</text>
  </g>
  <g transform="translate(424, 580)">
    <text x="0" y="24" class="t li">Le fichier source reste stockť ; seuls les recadrages</text>
    <text x="0" y="48" class="t li">servent ŗ l&#8217;affichage (WebP cŰtť site quand possible).</text>
  </g>

  <rect class="card" x="32" y="744" width="856" height="200" rx="8"/>
  <text x="48" y="774" class="t h2">Bonnes pratiques (UX)</text>
  <text x="48" y="802" class="t li">&#8226; Lire les formats et tailles avant d&#8217;envoyer</text>
  <text x="48" y="826" class="t li">&#8226; Vťrifier l&#8217;aperÁu dans le formulaire quand il est proposť</text>
  <text x="48" y="850" class="t li">&#8226; Prťfťrer un bon contraste et peu de texte dans l&#8217;image</text>
  <text x="48" y="874" class="t li">&#8226; Tester sur mobile : le rendu carrť coupe les bords</text>
  <text x="48" y="910" text-anchor="start" class="t t-muted">Rťf. : consignes claires, prťvisualisation, limites explicites (usage courant upload web).</text>

  <text x="460" y="1000" text-anchor="middle" class="t t-muted">Page dťtaillťe : /guide-images</text>
</svg>
